# xmcd
#
# Track frame offsets:
#	150
#	21898
#	33367
#	50880
#	70631
#	82331
#	101555
#	118644
#	132601
#	152242
#	167843
#	183984
#	201193
#	218972
#	240218
#	266644
#
# Disc length: 3567 seconds
#
# Revision: 2
# Processed by: cddbd v1.5.1PL2 Copyright (c) Steve Scherf et al.
# Submitted via: audiograbber 1.83.01
#
DISCID=e90ded10
DTITLE=Sound Choice - SC8901
DYEAR=2005
DGENRE=Karaoke
TTITLE0=Willie Nelson - Angel Flying Too Close To The Ground
TTITLE1=Willie Nelson - Blue Eyes Crying In The Rain
TTITLE2=Willie Nelson - Always On My Mind
TTITLE3=Willie Nelson - All Of Me
TTITLE4=Willie Nelson - On The Road Again
TTITLE5=Willie Nelson and Ray Charles - Seven Spanish Angels
TTITLE6=Willie Nelson and Julio Iglesias - To All The Girls I've Loved Before
TTITLE7=Willie Nelson and Waylon Jennings - Mammas Don't Let Your Babies Grow Up 
TTITLE7=To Be Cowboys
TTITLE8=Willie Nelson - Help Me Make It Through The Night
TTITLE9=Willie Nelson and Waylon Jennings - Good Hearted Woman
TTITLE10=Toby Keith and Willie Nelson - Beer For My Horses
TTITLE11=Willie Nelson - Blue Skies
TTITLE12=Willie Nelson - Whiskey River
TTITLE13=Willie Nelson and Lee Ann Womack - Mendocino County Line
TTITLE14=Willie Nelson - My Heroes Have Always Been Cowboys
TTITLE15=Data - Data Track
EXTD=
EXTT0=
EXTT1=
EXTT2=
EXTT3=
EXTT4=
EXTT5=
EXTT6=
EXTT7=
EXTT8=
EXTT9=
EXTT10=
EXTT11=
EXTT12=
EXTT13=
EXTT14=
EXTT15=
PLAYORDER=
